# xmcd
#
# Track frame offsets: 
#        150
#        18934
#        36354
#        55917
#        72149
#        103867
#
# Disc length: 1650 seconds
#
# Revision: 0
# Processed by: cddbd v1.5.2PL0 Copyright (c) Steve Scherf et al.
# Submitted via: ExactAudioCopy v1.0b3
#
DISCID=4b067006
DTITLE=Drop's - コール・ミー
DYEAR=2014
DGENRE=Blues
TTITLE0=コール・ミー
TTITLE1=C・O・F・F・E・E・E
TTITLE2=卒業写真
TTITLE3=C・O・F・F・E・E・E(Acoustic ver.)
TTITLE4=カルーセル・ワルツ(Live ver.)
TTITLE5=コール・ミー(Live ver.)
EXTD=
EXTT0=
EXTT1=
EXTT2=
EXTT3=
EXTT4=
EXTT5=
PLAYORDER=
